<svg xmlns="http://www.w3.org/2000/svg" viewBox="0 0 200 200">
  <defs>
    <linearGradient id="logoGradient" x1="0%" y1="0%" x2="100%" y2="100%">
      <stop offset="0%" style="stop-color:#1e40af;stop-opacity:1" />
      <stop offset="100%" style="stop-color:#3b82f6;stop-opacity:1" />
    </linearGradient>
  </defs>
  
  <!-- 外圆环 -->
  <circle cx="100" cy="100" r="90" fill="url(#logoGradient)"/>
  
  <!-- 内圆背景 -->
  <circle cx="100" cy="100" r="75" fill="white" opacity="0.15"/>
  
  <!-- 地球轮廓 -->
  <circle cx="100" cy="100" r="50" fill="none" stroke="white" stroke-width="2.5" opacity="0.5"/>
  
  <!-- 经纬线 -->
  <ellipse cx="100" cy="100" rx="50" ry="20" fill="none" stroke="white" stroke-width="2" opacity="0.6"/>
  <ellipse cx="100" cy="100" rx="20" ry="50" fill="none" stroke="white" stroke-width="2" opacity="0.6"/>
  
  <!-- 集装箱图标 -->
  <g transform="translate(100, 100)">
    <!-- 集装箱主体 -->
    <rect x="-28" y="-18" width="56" height="36" rx="3" fill="white" opacity="0.95"/>
    
    <!-- 集装箱线条 -->
    <line x1="-28" y1="-6" x2="28" y2="-6" stroke="#1e40af" stroke-width="2.5"/>
    <line x1="-28" y1="6" x2="28" y2="6" stroke="#1e40af" stroke-width="2.5"/>
    <line x1="-10" y1="-18" x2="-10" y2="18" stroke="#1e40af" stroke-width="2.5"/>
    <line x1="10" y1="-18" x2="10" y2="18" stroke="#1e40af" stroke-width="2.5"/>
    
    <!-- 对勾（通关标志） -->
    <path d="M -8 22 L -4 26 L 6 16" fill="none" stroke="#10b981" stroke-width="4" stroke-linecap="round" stroke-linejoin="round"/>
  </g>
  
  <!-- 装饰圆点 -->
  <circle cx="100" cy="30" r="4" fill="white" opacity="0.8"/>
  <circle cx="170" cy="100" r="4" fill="white" opacity="0.8"/>
  <circle cx="100" cy="170" r="4" fill="white" opacity="0.8"/>
  <circle cx="30" cy="100" r="4" fill="white" opacity="0.8"/>
</svg>
